<svg width="50" height="50" viewBox="0 0 51 30" fill="none" xmlns="http://www.w3.org/2000/svg">
<ellipse cx="47.0473" cy="10.3354" rx="3.24464" ry="3.18012" fill="#A7AFE1"/>
<ellipse cx="6.48927" cy="25.441" rx="3.24464" ry="3.18012" fill="#A7AFE1"/>
<ellipse cx="47.0473" cy="19.8758" rx="3.24464" ry="3.18012" fill="#A7AFE1"/>
<ellipse cx="3.24464" cy="15.9006" rx="3.24464" ry="3.18012" fill="#A7AFE1"/>
<ellipse cx="11.3562" cy="9.54037" rx="3.24464" ry="3.18012" fill="#A7AFE1"/>
<ellipse cx="4.05583" cy="3.18012" rx="3.24464" ry="3.18012" fill="#A7AFE1"/>
<ellipse cx="30.0129" cy="9.54037" rx="3.24464" ry="3.18012" fill="#A7AFE1"/>
<ellipse cx="20.279" cy="3.18012" rx="3.24464" ry="3.18012" fill="#A7AFE1"/>
<ellipse cx="29.2017" cy="19.0807" rx="3.24464" ry="3.18012" fill="#A7AFE1"/>
<ellipse rx="3.19639" ry="3.22862" transform="matrix(0.507719 -0.861523 0.870225 0.492655 37.6901 25.0152)" fill="#A7AFE1"/>
<ellipse rx="3.19639" ry="3.22862" transform="matrix(0.507719 -0.861523 0.870225 0.492655 39.3124 5.13939)" fill="#A7AFE1"/>
<ellipse rx="3.22872" ry="3.19629" transform="matrix(0.871057 -0.491183 0.506231 0.862398 37.688 14.6778)" fill="#A7AFE1"/>
<ellipse rx="3.22872" ry="3.19629" transform="matrix(0.871057 -0.491183 0.506231 0.862398 13.3532 19.448)" fill="#A7AFE1"/>
<ellipse rx="3.22872" ry="3.19629" transform="matrix(0.871057 -0.491183 0.506231 0.862398 21.4648 25.0132)" fill="#A7AFE1"/>
<path d="M23.4661 11.5363C24.3597 13.0587 23.825 15.0028 22.2717 15.8787C20.7185 16.7545 18.7349 16.2304 17.8413 14.7081C16.9476 13.1857 17.4824 11.2416 19.0356 10.3657C20.5888 9.48986 22.5724 10.0139 23.4661 11.5363Z" fill="#A7AFE1"/>
</svg>
