<svg width="213" height="41" viewBox="0 0 213 41" fill="none" xmlns="http://www.w3.org/2000/svg">
<path d="M70.192 11.92C71.008 11.392 71.88 10.984 72.808 10.696C73.752 10.392 74.672 10.24 75.568 10.24C75.68 10.24 75.8 10.248 75.928 10.264C76.072 10.264 76.272 10.272 76.528 10.288L72.832 27.52C73.2 27.6 73.592 27.736 74.008 27.928C74.44 28.104 75.088 28.424 75.952 28.888C77.248 29.592 78.24 30.056 78.928 30.28C79.616 30.504 80.272 30.616 80.896 30.616C81.264 30.616 81.608 30.584 81.928 30.52C82.264 30.456 82.592 30.36 82.912 30.232C82.784 31.384 82.496 32.296 82.048 32.968C81.6 33.656 81.056 34 80.416 34C79.84 34 79.224 33.84 78.568 33.52C77.928 33.216 76.952 32.544 75.64 31.504C74.136 30.288 72.968 29.488 72.136 29.104C71.304 28.736 70.496 28.552 69.712 28.552C69.568 28.552 69.456 28.552 69.376 28.552C69.296 28.552 69.224 28.56 69.16 28.576L72.736 11.944C71.648 12.392 70.816 13.064 70.24 13.96C69.664 14.856 69.376 15.928 69.376 17.176C69.376 17.48 69.392 17.744 69.424 17.968C69.472 18.192 69.544 18.408 69.64 18.616C69.672 18.68 69.688 18.728 69.688 18.76C69.704 18.776 69.712 18.792 69.712 18.808C68.816 18.808 68.16 18.624 67.744 18.256C67.344 17.872 67.144 17.28 67.144 16.48C67.144 15.68 67.408 14.88 67.936 14.08C68.48 13.28 69.232 12.56 70.192 11.92ZM84.9018 18.088C84.9018 19.416 84.3578 20.576 83.2698 21.568C82.1818 22.544 80.8858 23.072 79.3818 23.152C79.3658 23.424 79.3498 23.632 79.3338 23.776C79.3338 23.904 79.3338 24.016 79.3338 24.112C79.3338 24.848 79.4538 25.368 79.6938 25.672C79.9498 25.976 80.4058 26.128 81.0618 26.128C81.8138 26.128 82.5018 25.96 83.1258 25.624C83.7658 25.272 84.4938 24.632 85.3098 23.704H86.1258C85.1978 25.208 84.1898 26.328 83.1018 27.064C82.0138 27.784 80.8218 28.144 79.5258 28.144C78.2938 28.144 77.3577 27.824 76.7178 27.184C76.0938 26.544 75.7817 25.592 75.7817 24.328C75.7817 23.416 75.9257 22.448 76.2138 21.424C76.5018 20.4 76.8858 19.488 77.3658 18.688C77.9578 17.728 78.6618 17.008 79.4778 16.528C80.3098 16.032 81.2378 15.784 82.2617 15.784C83.1418 15.784 83.7978 15.976 84.2298 16.36C84.6778 16.728 84.9018 17.304 84.9018 18.088ZM82.4538 17.056C81.9098 17.056 81.3578 17.544 80.7978 18.52C80.2538 19.48 79.8458 20.64 79.5738 22C80.5018 21.936 81.3098 21.512 81.9978 20.728C82.7018 19.928 83.0538 19.032 83.0538 18.04C83.0538 17.704 83.0058 17.456 82.9098 17.296C82.8138 17.136 82.6618 17.056 82.4538 17.056ZM93.3391 17.104V17.272L93.6031 16H97.0591L95.3311 24.16C95.2991 24.304 95.2751 24.44 95.2591 24.568C95.2431 24.68 95.2351 24.8 95.2351 24.928C95.2351 25.28 95.3151 25.544 95.4751 25.72C95.6351 25.88 95.8831 25.96 96.2191 25.96C96.6351 25.96 97.0111 25.768 97.3471 25.384C97.6831 24.984 97.9551 24.424 98.1631 23.704H99.1711C98.6591 25.176 97.9951 26.288 97.1791 27.04C96.3631 27.776 95.4191 28.144 94.3471 28.144C93.6591 28.144 93.1071 27.952 92.6911 27.568C92.2911 27.184 92.0591 26.64 91.9951 25.936C91.4991 26.672 90.9471 27.224 90.3391 27.592C89.7471 27.96 89.1071 28.144 88.4191 28.144C87.4271 28.144 86.6431 27.808 86.0671 27.136C85.5071 26.464 85.2271 25.512 85.2271 24.28C85.2271 23.384 85.3631 22.448 85.6351 21.472C85.9071 20.496 86.2831 19.608 86.7631 18.808C87.3551 17.864 88.0431 17.144 88.8271 16.648C89.6111 16.136 90.4671 15.88 91.3951 15.88C92.0191 15.88 92.4991 15.992 92.8351 16.216C93.1711 16.424 93.3391 16.72 93.3391 17.104ZM93.1231 18.28C93.1231 18.04 93.0351 17.832 92.8591 17.656C92.6831 17.464 92.4431 17.368 92.1391 17.368C91.2591 17.368 90.4751 18.104 89.7871 19.576C89.1151 21.048 88.7791 22.504 88.7791 23.944C88.7791 24.568 88.8671 25.04 89.0431 25.36C89.2191 25.664 89.5311 25.816 89.9791 25.816C90.3951 25.816 90.7951 25.616 91.1791 25.216C91.5791 24.816 91.8431 24.312 91.9711 23.704L93.1231 18.28ZM105.612 18.04C105.356 18.04 105.148 17.92 104.988 17.68C104.828 17.424 104.748 17.136 104.748 16.816C104.748 16.416 104.876 16.104 105.132 15.88C105.404 15.64 105.772 15.52 106.236 15.52C106.732 15.52 107.108 15.704 107.364 16.072C107.62 16.44 107.748 16.952 107.748 17.608C107.748 18.696 107.604 19.84 107.316 21.04C107.044 22.224 106.668 23.304 106.188 24.28C105.548 25.544 104.78 26.504 103.884 27.16C102.988 27.816 101.996 28.144 100.908 28.144C99.9639 28.144 99.2359 27.904 98.7239 27.424C98.2119 26.928 97.9559 26.224 97.9559 25.312C97.9559 25.136 97.9719 24.952 98.0039 24.76C98.0199 24.552 98.0439 24.352 98.0759 24.16L99.8039 16H103.26L101.532 24.16C101.5 24.336 101.468 24.504 101.436 24.664C101.42 24.808 101.412 24.928 101.412 25.024C101.412 25.28 101.476 25.48 101.604 25.624C101.748 25.752 101.956 25.816 102.228 25.816C102.788 25.816 103.332 25.528 103.86 24.952C104.404 24.36 104.892 23.528 105.324 22.456C105.644 21.688 105.9 20.88 106.092 20.032C106.284 19.184 106.38 18.44 106.38 17.8C106.348 17.864 106.244 17.92 106.068 17.968C105.908 18.016 105.756 18.04 105.612 18.04ZM116.964 18.088C116.964 19.416 116.42 20.576 115.332 21.568C114.244 22.544 112.948 23.072 111.444 23.152C111.428 23.424 111.412 23.632 111.396 23.776C111.396 23.904 111.396 24.016 111.396 24.112C111.396 24.848 111.516 25.368 111.756 25.672C112.012 25.976 112.468 26.128 113.124 26.128C113.876 26.128 114.564 25.96 115.188 25.624C115.828 25.272 116.556 24.632 117.372 23.704H118.188C117.26 25.208 116.252 26.328 115.164 27.064C114.076 27.784 112.884 28.144 111.588 28.144C110.356 28.144 109.42 27.824 108.78 27.184C108.156 26.544 107.844 25.592 107.844 24.328C107.844 23.416 107.988 22.448 108.276 21.424C108.564 20.4 108.948 19.488 109.428 18.688C110.02 17.728 110.724 17.008 111.54 16.528C112.372 16.032 113.3 15.784 114.324 15.784C115.204 15.784 115.86 15.976 116.292 16.36C116.74 16.728 116.964 17.304 116.964 18.088ZM114.516 17.056C113.972 17.056 113.42 17.544 112.86 18.52C112.316 19.48 111.908 20.64 111.636 22C112.564 21.936 113.372 21.512 114.06 20.728C114.764 19.928 115.116 19.032 115.116 18.04C115.116 17.704 115.068 17.456 114.972 17.296C114.876 17.136 114.724 17.056 114.516 17.056ZM123.41 16H124.202L124.922 12.688L128.474 12.208L127.658 16H129.098L128.906 16.96H127.466L125.93 24.16C125.898 24.304 125.874 24.44 125.858 24.568C125.842 24.68 125.834 24.8 125.834 24.928C125.834 25.248 125.906 25.48 126.05 25.624C126.21 25.752 126.466 25.816 126.818 25.816C127.266 25.816 127.69 25.624 128.09 25.24C128.49 24.84 128.786 24.328 128.978 23.704H129.986C129.474 25.16 128.786 26.264 127.922 27.016C127.058 27.768 126.066 28.144 124.946 28.144C124.146 28.144 123.514 27.896 123.05 27.4C122.602 26.888 122.378 26.176 122.378 25.264C122.378 25.056 122.394 24.824 122.426 24.568C122.458 24.296 122.506 24.008 122.57 23.704L124.01 16.96H123.218L123.41 16ZM134.965 25.432C134.965 25.144 134.997 24.784 135.061 24.352C135.141 23.92 135.293 23.232 135.517 22.288C135.741 21.376 135.885 20.72 135.949 20.32C136.013 19.92 136.045 19.584 136.045 19.312C136.045 18.912 135.965 18.608 135.805 18.4C135.661 18.192 135.445 18.088 135.157 18.088C134.773 18.088 134.397 18.32 134.029 18.784C133.677 19.232 133.445 19.704 133.333 20.2L131.677 28H128.221L131.701 11.68L135.253 11.2L133.957 17.248C134.357 16.8 134.789 16.464 135.253 16.24C135.717 16.016 136.221 15.904 136.765 15.904C137.613 15.904 138.269 16.136 138.733 16.6C139.197 17.064 139.429 17.736 139.429 18.616C139.429 18.984 139.381 19.424 139.285 19.936C139.205 20.432 139.037 21.2 138.781 22.24C138.573 23.056 138.437 23.632 138.373 23.968C138.309 24.304 138.277 24.584 138.277 24.808C138.277 25.144 138.357 25.4 138.517 25.576C138.677 25.736 138.917 25.816 139.237 25.816C139.637 25.816 139.981 25.68 140.269 25.408C140.557 25.136 140.885 24.568 141.253 23.704H142.261C141.749 25.192 141.125 26.304 140.389 27.04C139.669 27.776 138.805 28.144 137.797 28.144C136.901 28.144 136.205 27.904 135.709 27.424C135.213 26.928 134.965 26.264 134.965 25.432ZM149.941 18.088C149.941 19.416 149.397 20.576 148.309 21.568C147.221 22.544 145.925 23.072 144.421 23.152C144.405 23.424 144.389 23.632 144.373 23.776C144.373 23.904 144.373 24.016 144.373 24.112C144.373 24.848 144.493 25.368 144.733 25.672C144.989 25.976 145.445 26.128 146.101 26.128C146.853 26.128 147.541 25.96 148.165 25.624C148.805 25.272 149.533 24.632 150.349 23.704H151.165C150.237 25.208 149.229 26.328 148.141 27.064C147.053 27.784 145.861 28.144 144.565 28.144C143.333 28.144 142.397 27.824 141.757 27.184C141.133 26.544 140.821 25.592 140.821 24.328C140.821 23.416 140.965 22.448 141.253 21.424C141.541 20.4 141.925 19.488 142.405 18.688C142.997 17.728 143.701 17.008 144.517 16.528C145.349 16.032 146.277 15.784 147.301 15.784C148.181 15.784 148.837 15.976 149.269 16.36C149.717 16.728 149.941 17.304 149.941 18.088ZM147.493 17.056C146.949 17.056 146.397 17.544 145.837 18.52C145.293 19.48 144.885 20.64 144.613 22C145.541 21.936 146.349 21.512 147.037 20.728C147.741 19.928 148.093 19.032 148.093 18.04C148.093 17.704 148.045 17.456 147.949 17.296C147.853 17.136 147.701 17.056 147.493 17.056ZM161.379 25.432C161.379 25.144 161.411 24.784 161.475 24.352C161.555 23.92 161.707 23.232 161.931 22.288C162.155 21.376 162.299 20.72 162.363 20.32C162.427 19.92 162.459 19.584 162.459 19.312C162.459 18.912 162.387 18.608 162.243 18.4C162.099 18.192 161.883 18.088 161.595 18.088C161.211 18.088 160.851 18.288 160.515 18.688C160.195 19.072 159.931 19.608 159.723 20.296L158.091 28H154.635L157.179 16H160.635L160.371 17.248C160.771 16.8 161.203 16.464 161.667 16.24C162.131 16.016 162.635 15.904 163.179 15.904C164.027 15.904 164.683 16.136 165.147 16.6C165.611 17.064 165.843 17.736 165.843 18.616C165.843 18.984 165.795 19.424 165.699 19.936C165.619 20.432 165.451 21.2 165.195 22.24C164.987 23.056 164.851 23.632 164.787 23.968C164.723 24.304 164.691 24.584 164.691 24.808C164.691 25.144 164.771 25.4 164.931 25.576C165.091 25.736 165.331 25.816 165.651 25.816C166.051 25.816 166.395 25.68 166.683 25.408C166.971 25.136 167.299 24.568 167.667 23.704H168.675C168.163 25.192 167.539 26.304 166.803 27.04C166.083 27.776 165.219 28.144 164.211 28.144C163.315 28.144 162.619 27.904 162.123 27.424C161.627 26.928 161.379 26.264 161.379 25.432ZM176.683 18.088C176.683 19.416 176.139 20.576 175.051 21.568C173.963 22.544 172.667 23.072 171.163 23.152C171.147 23.424 171.131 23.632 171.115 23.776C171.115 23.904 171.115 24.016 171.115 24.112C171.115 24.848 171.235 25.368 171.475 25.672C171.731 25.976 172.187 26.128 172.843 26.128C173.595 26.128 174.283 25.96 174.907 25.624C175.547 25.272 176.275 24.632 177.091 23.704H177.907C176.979 25.208 175.971 26.328 174.883 27.064C173.795 27.784 172.603 28.144 171.307 28.144C170.075 28.144 169.139 27.824 168.499 27.184C167.875 26.544 167.563 25.592 167.563 24.328C167.563 23.416 167.707 22.448 167.995 21.424C168.283 20.4 168.667 19.488 169.147 18.688C169.739 17.728 170.443 17.008 171.259 16.528C172.091 16.032 173.019 15.784 174.043 15.784C174.923 15.784 175.579 15.976 176.011 16.36C176.459 16.728 176.683 17.304 176.683 18.088ZM174.235 17.056C173.691 17.056 173.139 17.544 172.579 18.52C172.035 19.48 171.627 20.64 171.355 22C172.283 21.936 173.091 21.512 173.779 20.728C174.483 19.928 174.835 19.032 174.835 18.04C174.835 17.704 174.787 17.456 174.691 17.296C174.595 17.136 174.443 17.056 174.235 17.056ZM184.177 23.992C184.177 24.184 184.169 24.352 184.153 24.496C184.137 24.64 184.113 24.776 184.081 24.904C184.401 24.712 184.713 24.512 185.017 24.304C185.321 24.096 185.585 23.896 185.809 23.704H186.817C186.321 24.28 185.769 24.816 185.161 25.312C184.569 25.792 183.897 26.256 183.145 26.704C182.713 27.168 182.161 27.528 181.489 27.784C180.817 28.024 180.113 28.144 179.377 28.144C178.305 28.144 177.449 27.856 176.809 27.28C176.185 26.688 175.873 25.952 175.873 25.072C175.873 24.576 175.993 24.128 176.233 23.728C176.473 23.312 176.777 23.016 177.145 22.84C177.689 21.864 178.193 20.824 178.657 19.72C179.137 18.6 179.617 17.272 180.097 15.736L183.649 15.256C183.697 16.456 183.753 17.552 183.817 18.544C183.881 19.536 183.961 20.616 184.057 21.784C184.105 22.456 184.137 22.928 184.153 23.2C184.169 23.472 184.177 23.736 184.177 23.992ZM180.241 18.328C180.033 18.984 179.777 19.672 179.473 20.392C179.185 21.096 178.793 21.92 178.297 22.864C178.473 22.944 178.609 23.056 178.705 23.2C178.801 23.344 178.849 23.512 178.849 23.704C178.849 24.008 178.745 24.28 178.537 24.52C178.329 24.76 178.081 24.88 177.793 24.88C177.633 24.88 177.497 24.856 177.385 24.808C177.273 24.744 177.193 24.664 177.145 24.568C177.145 25.16 177.257 25.592 177.481 25.864C177.721 26.12 178.097 26.248 178.609 26.248C179.265 26.248 179.777 26.056 180.145 25.672C180.513 25.288 180.697 24.736 180.697 24.016C180.697 23.792 180.689 23.568 180.673 23.344C180.657 23.104 180.625 22.712 180.577 22.168C180.497 21.416 180.433 20.752 180.385 20.176C180.337 19.6 180.289 18.984 180.241 18.328ZM186.645 16H187.437L188.157 12.688L191.709 12.208L190.893 16H192.333L192.141 16.96H190.701L189.165 24.16C189.133 24.304 189.109 24.44 189.093 24.568C189.077 24.68 189.069 24.8 189.069 24.928C189.069 25.248 189.141 25.48 189.285 25.624C189.445 25.752 189.701 25.816 190.053 25.816C190.501 25.816 190.925 25.624 191.325 25.24C191.725 24.84 192.021 24.328 192.213 23.704H193.221C192.709 25.16 192.021 26.264 191.157 27.016C190.293 27.768 189.301 28.144 188.181 28.144C187.381 28.144 186.749 27.896 186.285 27.4C185.837 26.888 185.613 26.176 185.613 25.264C185.613 25.056 185.629 24.824 185.661 24.568C185.693 24.296 185.741 24.008 185.805 23.704L187.245 16.96H186.453L186.645 16Z" fill="#29066B"/>
<path d="M4.97897 19.0867C9.16723 23.0727 15.9671 25.0263 21.3997 26.2313C32.119 28.6089 43.6119 28.8045 54.445 27.0174" stroke="#6C78C3" stroke-width="1.85714" stroke-linecap="round" stroke-linejoin="round"/>
<path d="M49.6263 19.4346C42.9242 22.3241 36.2468 25.4681 29.1974 27.4478C25.0552 28.6111 20.7022 29.0482 16.4639 29.7394C13.625 30.2024 10.5284 30.9643 7.62848 30.6818" stroke="#6C78C3" stroke-width="1.85714" stroke-linecap="round" stroke-linejoin="round"/>
<path d="M2.57382 25.5212C4.70861 27.0332 7.59853 28.2898 10.1582 28.9276C11.3007 29.2123 12.3179 29.8123 13.4658 30.0896C15.6688 30.6217 17.8167 31.2233 20.0596 31.6211C23.6787 32.2629 27.2937 32.8971 30.9154 33.5183C34.4059 34.1171 37.9486 34.5422 41.4221 35.1964C44.4431 35.7653 47.4785 35.2306 50.5042 35.5253" stroke="#6C78C3" stroke-width="1.85714" stroke-linecap="round" stroke-linejoin="round"/>
<path d="M53.51 22.925C51.7706 24.0731 50.3564 25.5136 48.4506 26.4335C44.8488 28.1719 40.7115 29.0935 36.9285 30.3621C32.8082 31.7438 28.7649 33.4177 24.4049 33.9215C22.757 34.1119 21.1539 34.5193 19.5099 34.729C18.0443 34.916 16.723 34.7761 15.2696 34.7729C13.0921 34.7682 10.9647 34.6979 8.78382 34.7957" stroke="#6C78C3" stroke-width="1.85714" stroke-linecap="round" stroke-linejoin="round"/>
<path d="M46.1188 11.4285C42.1239 3.48914 38.522 3.06335 30.3331 2.14279C39.4131 6.05919 43.0816 7.67697 44.3787 15.3734C44.4601 15.8569 45.0384 16.0806 45.4065 15.7566C49.0688 12.5324 50.6018 10.8517 61.1308 15.9772C54.6929 9.02701 53.3738 9.37495 46.1188 11.4285Z" fill="#6C78C3"/>
<path d="M53.4768 5.02639C51.5915 2.0098 49.9741 1.31735 46.8983 1.00576C46.5437 0.969836 46.4359 1.45862 46.7677 1.58902C49.83 2.79265 51.426 3.79046 52.8465 6.73084C52.9254 6.89413 53.1267 6.95925 53.283 6.86741C54.8701 5.93516 55.5059 5.38649 59.9451 6.86431C60.2683 6.97193 60.5114 6.5587 60.2499 6.34026C57.5723 4.10356 56.6808 4.17621 53.4768 5.02639Z" fill="#6C78C3"/>
</svg>
